<svg width="245" height="245" viewBox="0 0 245 245" fill="none" xmlns="http://www.w3.org/2000/svg">
<circle cx="122.5" cy="122.5" r="122.5" fill="#05030F"/>
<path fill-rule="evenodd" clip-rule="evenodd" d="M91.9679 88.1857L98.9508 77.9465H109.833L102.85 88.1857H91.9679ZM129.836 77.9465V86.8067H159.804V88.1857H120.845V77.9465H129.836Z" fill="#E5E1F9"/>
<path fill-rule="evenodd" clip-rule="evenodd" d="M153.649 108.664L146.834 118.903H136.035L142.849 108.664H153.649ZM88.8853 108.664H78.8904V118.903H111.855V115.342V110.847H107.36H87.3968L88.8853 108.664Z" fill="#E5E1F9"/>
<path fill-rule="evenodd" clip-rule="evenodd" d="M102.865 149.621V139.382H111.856V149.621H102.865ZM133.205 139.382L126.39 149.621H115.591L122.405 139.382H133.205Z" fill="#E5E1F9"/>
<path fill-rule="evenodd" clip-rule="evenodd" d="M135.796 61.799V47.2289L127.587 59.2662L104.912 92.5166H115.794L126.806 76.369L126.806 92.5166H135.796L135.796 101.377V61.799ZM165.765 101.377L165.765 102.756H126.806L126.806 105.872V110.367H131.301H139.169L140.303 108.664H151.103L149.969 110.367H157.373L117.815 169.802V149.621H113.043L117.815 142.451V129.912V125.417H113.32H93.3569L97.7988 118.903H86.9167L81.1363 127.379L76.3434 134.407H84.8502H108.825V139.382H109.309V149.621H108.825V184.669V199.537L117.062 187.16L169.507 108.363L174.157 101.377H165.765ZM108.811 102.756L103.293 110.847H92.4111L97.9288 102.756H108.811Z" fill="#E5E1F9"/>
<path fill-rule="evenodd" clip-rule="evenodd" d="M89.4225 88.1856L96.4054 77.9464H107.288L100.305 88.1856H89.4225ZM127.29 77.9464V86.8065H157.259V88.1856H118.3V77.9464H127.29Z" fill="#E5E1F9"/>
<path fill-rule="evenodd" clip-rule="evenodd" d="M151.102 108.664L144.287 118.903H133.488L140.303 108.664H151.102ZM86.3384 108.664H76.3428V118.903H109.309V115.342V110.847H104.813H84.85L86.3384 108.664Z" fill="#E5E1F9"/>
<path fill-rule="evenodd" clip-rule="evenodd" d="M100.318 149.621V139.382H109.308V149.621H100.318ZM130.657 139.382L123.842 149.621H113.043L119.857 139.382H130.657Z" fill="#E5E1F9"/>
<path fill-rule="evenodd" clip-rule="evenodd" d="M133.248 61.799V47.2289L125.039 59.2662L102.363 92.5166H113.245L106.262 102.756H95.3805L89.8628 110.847H100.745L124.258 76.369V92.5166H133.248V101.377H133.248V61.799ZM78.5881 127.379L84.3684 118.903H95.2506L90.8086 125.417H110.772H115.267V129.912V142.452L110.496 149.621H115.267V169.802L154.825 110.367H147.421L148.554 108.664H137.754L136.621 110.367H128.753H124.258V105.872V102.756H163.216V101.377H163.217H171.608L166.959 108.363L114.514 187.16L106.277 199.537V184.669V149.621H106.761V139.382H106.277V134.407H82.3019H73.7952L78.5881 127.379Z" fill="#E5E1F9"/>
<path fill-rule="evenodd" clip-rule="evenodd" d="M91.9679 88.1857L98.9508 77.9465H109.833L102.85 88.1857H91.9679ZM129.836 77.9465V86.8067H159.804V88.1857H120.845V77.9465H129.836Z" fill="#E5E1F9"/>
<path fill-rule="evenodd" clip-rule="evenodd" d="M153.649 108.664L146.834 118.903H136.035L142.849 108.664H153.649ZM88.8853 108.664H78.8904V118.903H111.855V115.342V110.847H107.36H87.3968L88.8853 108.664Z" fill="#E5E1F9"/>
<path fill-rule="evenodd" clip-rule="evenodd" d="M102.865 149.621V139.382H111.856V149.621H102.865ZM133.205 139.382L126.39 149.621H115.591L122.405 139.382H133.205Z" fill="#E5E1F9"/>
<path fill-rule="evenodd" clip-rule="evenodd" d="M135.796 61.799V47.2289L127.587 59.2662L104.912 92.5166H115.794L126.806 76.369L126.806 92.5166H135.796L135.796 101.377V61.799ZM165.765 101.377L165.765 102.756H126.806L126.806 105.872V110.367H131.301H139.169L140.303 108.664H151.103L149.969 110.367H157.373L117.815 169.802V149.621H113.043L117.815 142.451V129.912V125.417H113.32H93.3569L97.7988 118.903H86.9167L81.1363 127.379L76.3434 134.407H84.8502H108.825V139.382H109.309V149.621H108.825V184.669V199.537L117.062 187.16L169.507 108.363L174.157 101.377H165.765ZM108.811 102.756L103.293 110.847H92.4111L97.9288 102.756H108.811Z" fill="#E5E1F9"/>
<path fill-rule="evenodd" clip-rule="evenodd" d="M89.4225 88.1856L96.4054 77.9464H107.288L100.305 88.1856H89.4225ZM127.29 77.9464V86.8065H157.259V88.1856H118.3V77.9464H127.29Z" fill="#E5E1F9"/>
<path fill-rule="evenodd" clip-rule="evenodd" d="M151.102 108.664L144.287 118.903H133.488L140.303 108.664H151.102ZM86.3384 108.664H76.3428V118.903H109.309V115.342V110.847H104.813H84.85L86.3384 108.664Z" fill="#E5E1F9"/>
<path fill-rule="evenodd" clip-rule="evenodd" d="M100.318 149.621V139.382H109.308V149.621H100.318ZM130.657 139.382L123.842 149.621H113.043L119.857 139.382H130.657Z" fill="#E5E1F9"/>
<path fill-rule="evenodd" clip-rule="evenodd" d="M133.248 61.799V47.2289L125.039 59.2662L102.363 92.5166H113.245L106.262 102.756H95.3805L89.8628 110.847H100.745L124.258 76.369V92.5166H133.248V101.377H133.248V61.799ZM78.5881 127.379L84.3684 118.903H95.2506L90.8086 125.417H110.772H115.267V129.912V142.452L110.496 149.621H115.267V169.802L154.825 110.367H147.421L148.554 108.664H137.754L136.621 110.367H128.753H124.258V105.872V102.756H163.216V101.377H163.217H171.608L166.959 108.363L114.514 187.16L106.277 199.537V184.669V149.621H106.761V139.382H106.277V134.407H82.3019H73.7952L78.5881 127.379Z" fill="#E5E1F9"/>
</svg>